<?xml version="1.0" encoding="utf-8"?>
<!-- Generator: Adobe Illustrator 21.0.2, SVG Export Plug-In . SVG Version: 6.00 Build 0)  -->
<svg version="1.1" id="Layer_1" xmlns="http://www.w3.org/2000/svg" xmlns:xlink="http://www.w3.org/1999/xlink" x="0px" y="0px"
	 viewBox="0 0 1900 1080" style="enable-background:new 0 0 1900 1080;" xml:space="preserve">
<style type="text/css">
	.st0{fill:#525252;}
	.st1{fill:#969696;}
	.st2{fill:#BDBDBD;}
	.st3{fill:#D9D9D9;}
	.st4{fill:#FF0000;}
	.st5{fill:#FFFFFF;stroke:#000000;stroke-miterlimit:10;}
	.st6{font-family:'JosefinSans-SemiBold';}
	.st7{font-size:24px;}
	.st8{fill:#FFFFFF;}
	.st9{opacity:0.15;fill:#1B9E77;}
	.st10{fill:none;stroke:#000000;stroke-miterlimit:10;}
	.st11{display:none;}
	.st12{display:inline;fill:#FFFFFF;stroke:#000000;stroke-miterlimit:10;}
	.st13{display:inline;fill:#D9D9D9;stroke:#000000;stroke-miterlimit:10;}
	.st14{display:inline;}
	.st15{font-family:'Courier';}
	.st16{display:inline;fill:none;stroke:#000000;stroke-miterlimit:10;}
	.st17{font-family:'Courier-Bold';}
	.st18{font-size:14px;}
	.st19{fill:#FFFFFF;stroke:#000000;stroke-miterlimit:10;stroke-dasharray:6;}
	.st20{display:inline;opacity:0.15;fill:#1B9E77;}
	.st21{opacity:0.1;enable-background:new    ;}
	.st22{display:inline;opacity:0.1;enable-background:new    ;}
	.st23{display:inline;enable-background:new    ;}
	.st24{display:inline;fill:#FFFFFF;stroke:#000000;stroke-miterlimit:10;stroke-dasharray:6;}
	.st25{enable-background:new    ;}
</style>
<g id="Background">
	<rect x="684" y="504" class="st0" width="72" height="288"/>
	<rect x="792" y="576" class="st1" width="72" height="216"/>
	<rect x="1008" y="675" class="st2" width="72" height="117"/>
	<rect x="1116" y="720" class="st3" width="72" height="72"/>
	<rect x="900" y="540" class="st4" width="72" height="252"/>
	<g>
		<path d="M1873,1061.7c-9.2-9.2-18.5-18.5-27.7-27.7c-0.4-0.4-0.4-1.2,0-1.6l6.1-6.1c0.4-0.4,1.2-0.4,1.6,0l2.1,2.2l-4.6,4.4
			l1.2,1.1l4.3-4.5l2.8,2.8l-3,2.7l1.2,1.1l2.8-2.9l2.6,2.7l-4.6,4.4l1.2,1.1l4.3-4.4l2.6,2.6l-2.9,2.7l1.5,1.3l2.6-2.9l2.6,2.6
			l-4.6,4.5l1.2,1l4.4-4.6l2.8,2.8l-3.1,2.7l1.3,1.2l2.7-3l2.5,2.7l-4.5,4.4l1.3,1.1l4.3-4.4l2.3,2.3c0.4,0.4,0.4,1.1,0,1.6
			l-6.1,6.1C1874.2,1062.1,1873.5,1062.1,1873,1061.7z"/>
	</g>
	<g id="PSy1n5.tif">
		<g>
			<path d="M1791.7,1026.1c5.5,2.5,11,5,16.5,7.6c1.1,0.5,1.1,1.9,0,2.4c-5.5,2.5-11,5-16.5,7.6c-0.4,0.2-0.9,0.2-1.3,0l-16.5-7.6
				c-1.1-0.5-1.1-1.9,0-2.4l16.5-7.6C1790.8,1026,1791.2,1026,1791.7,1026.1z"/>
			<path d="M1778.6,1041.2c3.9,1.8,7.8,3.6,11.8,5.4c0.4,0.2,0.9,0.2,1.3,0c3.9-1.8,7.8-3.6,11.8-5.4c0.4-0.2,0.9-0.2,1.3,0
				c1.1,0.5,2.3,1,3.4,1.6c1.1,0.5,1.1,1.9,0,2.4c-5.5,2.5-11,5-16.5,7.6c-0.4,0.2-0.9,0.2-1.3,0c-5.5-2.5-11-5-16.5-7.6
				c-1.1-0.5-1.1-1.9,0-2.4s2.3-1,3.4-1.6C1777.7,1041,1778.2,1041,1778.6,1041.2z"/>
			<path d="M1790.3,1061.9c-5.5-2.5-11-5-16.5-7.6c-1.1-0.5-1.1-1.9,0-2.4s2.3-1,3.4-1.6c0.4-0.2,0.9-0.2,1.3,0
				c3.9,1.8,7.8,3.6,11.8,5.4c0.4,0.2,0.9,0.2,1.3,0c3.9-1.8,7.8-3.6,11.8-5.4c0.4-0.2,0.9-0.2,1.3,0c1.1,0.5,2.3,1,3.4,1.6
				c1.1,0.5,1.1,1.9,0,2.4c-5.5,2.5-11,5-16.5,7.6C1791.2,1062,1790.8,1062,1790.3,1061.9z"/>
		</g>
	</g>
	<g id="DayxNP.tif">
		<g>
			<path d="M54,1029.6c0,9.6,0,19.2,0,28.7c0,0.1,0,0.2-0.1,0.3c-0.2,0.9-0.5,1.6-1.1,2.3c-0.7,0.8-1.6,1.1-2.5,1.1
				c-1.6,0-3.1,0-4.7,0c-8,0-15.9,0-23.9,0c-1.5,0-2.6-0.7-3.3-2.3c-0.2-0.4-0.2-0.9-0.4-1.3c0-9.6,0-19.1,0-28.7
				c0-0.1,0-0.1,0.1-0.2c0.2-1.3,0.8-2.3,1.8-3c0.6-0.4,1.2-0.4,1.8-0.4c3.5,0,7.1,0,10.6,0c6,0,12,0,18,0c1.5,0,2.6,0.7,3.3,2.3
				C53.8,1028.7,53.9,1029.2,54,1029.6z M24.9,1039.1c1.1,0,2.2,0,3.3,0c0.6,0,0.9-0.3,0.9-1c0-1.5,0-3,0-4.5c0-0.8-0.2-1-0.9-1
				c-2.2,0-4.4,0-6.6,0c-0.6,0-0.9,0.3-0.9,1c0,1.5,0,3,0,4.5c0,0.7,0.2,1,0.9,1C22.7,1039.1,23.8,1039.1,24.9,1039.1z M47.1,1039.1
				c1.1,0,2.2,0,3.2,0c0.7,0,0.9-0.3,0.9-1.1c0-1.5,0-2.9,0-4.4c0-0.8-0.2-1.1-0.9-1.1c-2.2,0-4.4,0-6.5,0c-0.6,0-0.9,0.3-0.9,1
				c0,1.5,0,3,0,4.6c0,0.7,0.2,1,0.9,1C44.9,1039.1,46,1039.1,47.1,1039.1z M24.9,1058.7c1.1,0,2.2,0,3.3,0c0.6,0,0.9-0.3,0.9-1
				c0-1.5,0-3,0-4.5c0-0.8-0.2-1-0.8-1c-2.2,0-4.4,0-6.6,0c-0.6,0-0.8,0.3-0.8,1c0,1.5,0,3,0,4.5c0,0.7,0.2,1,0.9,1
				C22.7,1058.7,23.8,1058.7,24.9,1058.7z M47.1,1052.2L47.1,1052.2c-1.1,0-2.2,0-3.3,0c-0.6,0-0.8,0.3-0.8,1c0,1.5,0,3,0,4.6
				c0,0.7,0.2,1,0.9,1c2.2,0,4.3,0,6.5,0c0.7,0,0.9-0.3,0.9-1.1c0-1.5,0-2.9,0-4.4c0-0.8-0.2-1.1-0.9-1.1
				C49.3,1052.2,48.2,1052.2,47.1,1052.2z M36,1039.1c1.1,0,2.2,0,3.3,0c0.6,0,0.8-0.3,0.8-1c0-1.5,0-3,0-4.6c0-0.8-0.2-1-0.9-1
				c-2.2,0-4.4,0-6.6,0c-0.6,0-0.9,0.3-0.9,1c0,1.5,0,3,0,4.5c0,0.8,0.2,1,0.9,1C33.8,1039.1,34.9,1039.1,36,1039.1z M36,1052.2
				L36,1052.2c-1.1,0-2.2,0-3.3,0c-0.6,0-0.8,0.3-0.8,1c0,1.5,0,3,0,4.5c0,0.8,0.2,1.1,0.9,1.1c2.2,0,4.3,0,6.5,0
				c0.7,0,0.9-0.3,0.9-1.1c0-1.5,0-2.9,0-4.4c0-0.8-0.2-1.1-0.9-1.1C38.2,1052.2,37.1,1052.2,36,1052.2z M47.1,1042.4
				c-1.1,0-2.2,0-3.3,0c-0.6,0-0.9,0.3-0.9,1c0,1.5,0,3,0,4.6c0,0.7,0.2,1,0.9,1c2.2,0,4.4,0,6.6,0c0.6,0,0.9-0.3,0.9-1
				c0-1.5,0-3,0-4.5c0-0.8-0.2-1-0.9-1C49.3,1042.4,48.2,1042.4,47.1,1042.4z M24.9,1048.9c1.1,0,2.2,0,3.3,0c0.6,0,0.9-0.3,0.9-1
				c0-1.5,0-3,0-4.5c0-0.8-0.2-1-0.9-1c-2.2,0-4.3,0-6.5,0c-0.7,0-0.9,0.3-0.9,1.1c0,1.5,0,3,0,4.4c0,0.8,0.2,1,0.9,1
				C22.7,1048.9,23.8,1048.9,24.9,1048.9z M36,1048.9c1.1,0,2.2,0,3.3,0c0.6,0,0.8-0.3,0.8-1c0-1.5,0-3,0-4.5c0-0.8-0.2-1-0.9-1
				c-2.2,0-4.4,0-6.6,0c-0.7,0-0.9,0.3-0.9,1c0,1.5,0,2.9,0,4.4c0,0.8,0.2,1.1,0.9,1.1C33.9,1048.9,34.9,1048.9,36,1048.9z"/>
		</g>
	</g>
	<g>
		<path d="M96.9,1026c1,0.5,2.1,1,3.1,1.4c-2.9,2.9-5.6,5.6-8.4,8.4c-0.8-0.7-1.2-1.8-1.6-2.9c0-0.7,0-1.3,0-2
			c0.4-0.9,0.8-1.8,1.3-2.6c0.8-1.3,2.2-1.8,3.6-2.2C95.5,1026,96.2,1026,96.9,1026z"/>
		<path d="M94,1038.2c2.8-2.7,5.5-5.4,8.2-8.2c0.2,0.2,0.4,0.4,0.7,0.6c5.6,5.6,11.2,11.2,16.8,16.8c0.3,0.3,0.6,0.8,0.8,1.2
			c1.7,4.1,3.4,8.2,5.1,12.3c0.1,0.3,0.2,0.5,0.4,1c-0.4-0.1-0.7-0.2-0.9-0.3c-4.2-1.7-8.3-3.4-12.5-5.2c-0.4-0.1-0.7-0.3-1-0.6
			c-5.8-5.8-11.5-11.5-17.3-17.3C94.2,1038.5,94.2,1038.4,94,1038.2z M116.1,1052.1c-2.1-0.1-3.1,0.7-3.2,2.8c2.5,1,5.1,2.1,7.6,3.1
			c0.2,0.1,0.7-0.1,0.9-0.3c0.3-0.3,0.7-0.8,0.6-1c-1-2.6-2.1-5.1-3.1-7.7C116.7,1049.2,115.9,1050.1,116.1,1052.1z"/>
	</g>
	<rect x="900" y="1026" class="st5" width="72" height="36"/>
	<g>
		<g id="PbZB57.tif_1_">
			<g>
				<path d="M774,1044c0,9.9-8.1,18-18,18s-18-8.1-18-18s8.1-18,18-18S774,1034.1,774,1044z M753.2,1042.6c0,0.2,0,0.4,0,0.5
					c0,3.7,0,7.4,0,11.1c0,0.7,0.2,0.9,0.9,0.9c1.2,0,2.4,0,3.6,0c0.7,0,0.9-0.2,0.9-0.9c0-3.7,0-7.4,0-11.1c0-0.1,0-0.3,0-0.5
					c0.2,0.1,0.3,0.2,0.3,0.3c0.7,0.7,1.4,1.4,2.2,2.2c0.4,0.4,0.8,0.4,1.2,0c0.9-0.9,1.8-1.8,2.7-2.7c0.4-0.4,0.4-0.8,0-1.2
					c-2.9-2.9-5.7-5.7-8.6-8.6c-0.4-0.4-0.8-0.4-1.2,0c-2.9,2.9-5.7,5.7-8.6,8.6c-0.4,0.4-0.4,0.8,0,1.2c0.9,0.9,1.8,1.8,2.7,2.7
					c0.4,0.4,0.8,0.4,1.2,0c0.7-0.7,1.4-1.4,2.2-2.2C753,1042.8,753.1,1042.7,753.2,1042.6z"/>
			</g>
		</g>
	</g>
	<path d="M1044,1026c-9.9,0-18,8.1-18,18s8.1,18,18,18s18-8.1,18-18S1053.9,1026,1044,1026z M1055.5,1046h-9.5v9.5h-4v-9.5h-9.5v-4
		h9.5v-9.6h4v9.6h9.5V1046z"/>
	<path d="M1116,1026c-9.9,0-18,8.1-18,18s8.1,18,18,18s18-8.1,18-18S1125.9,1026,1116,1026z M1125.6,1046h-19.3v-4h19.3V1046z"/>
	<g>
		<g id="PbZB57.tif_2_">
			<g>
				<path d="M810,1044c0-9.9,8.1-18,18-18s18,8.1,18,18s-8.1,18-18,18S810,1053.9,810,1044z M830.8,1045.4c0-0.2,0-0.4,0-0.5
					c0-3.7,0-7.4,0-11.1c0-0.7-0.2-0.9-0.9-0.9c-1.2,0-2.4,0-3.6,0c-0.7,0-0.9,0.2-0.9,0.9c0,3.7,0,7.4,0,11.1c0,0.1,0,0.3,0,0.5
					c-0.2-0.1-0.3-0.2-0.3-0.3c-0.7-0.7-1.4-1.4-2.2-2.2c-0.4-0.4-0.8-0.4-1.2,0c-0.9,0.9-1.8,1.8-2.7,2.7c-0.4,0.4-0.4,0.8,0,1.2
					c2.9,2.9,5.7,5.7,8.6,8.6c0.4,0.4,0.8,0.4,1.2,0c2.9-2.9,5.7-5.7,8.6-8.6c0.4-0.4,0.4-0.8,0-1.2c-0.9-0.9-1.8-1.8-2.7-2.7
					c-0.4-0.4-0.8-0.4-1.2,0c-0.7,0.7-1.4,1.4-2.2,2.2C831,1045.2,830.9,1045.3,830.8,1045.4z"/>
			</g>
		</g>
	</g>
	<text transform="matrix(1 0 0 1 908.4248 1053)" class="st6 st7">100%</text>
	<rect y="990" class="st5" width="1881" height="18"/>
	<rect x="1881" y="990" class="st5" width="18" height="18"/>
	<rect x="1881" class="st5" width="18" height="990"/>
	<path d="M1449,1107c-9.9,0-18,8.1-18,18s8.1,18,18,18s18-8.1,18-18S1458.9,1107,1449,1107z M1448.1,1117.2c0.3-0.3,0.6-0.4,1-0.4
		c0.3,0,0.6,0.1,0.9,0.4s0.4,0.6,0.4,1s-0.1,0.7-0.4,1c-0.3,0.2-0.6,0.4-0.9,0.4c-0.4,0-0.7-0.1-1-0.4c-0.3-0.2-0.4-0.6-0.4-1
		C1447.7,1117.8,1447.8,1117.5,1448.1,1117.2z M1452.3,1134.6h-6.7v-1.9h2.4v-8.1h-2.4v-2h4.4v10.1h2.3L1452.3,1134.6L1452.3,1134.6
		z"/>
	<g>
		<g>
			<path class="st8" d="M1395,1142c-4.5,0-8.8-1.8-12-5s-5-7.5-5-12c0-9.4,7.6-17,17-17c4.6,0,8.8,1.8,12,5s5,7.5,5,12
				C1412,1134.4,1404.4,1142,1395,1142L1395,1142z"/>
			<path d="M1395,1107v2c4.3,0,8.3,1.7,11.3,4.7s4.7,7,4.7,11.3c0,8.8-7.2,16-16,16c-4.3,0-8.3-1.7-11.3-4.7s-4.7-7-4.7-11.3
				c0-8.8,7.2-16,16-16V1107 M1395,1107c-9.9,0-18,8.1-18,18s8.1,18,18,18l0,0c9.9,0,18-8.1,18-18S1404.9,1107,1395,1107L1395,1107
				L1395,1107z"/>
		</g>
		<g>
			<path d="M1391.7,1132.7h2.4v-8.1h-2.4v-2h4.4v10.1h2.3v1.9h-6.7L1391.7,1132.7L1391.7,1132.7z M1393.7,1118.2
				c0-0.4,0.1-0.7,0.4-1s0.6-0.4,1-0.4c0.3,0,0.6,0.1,0.9,0.4s0.4,0.6,0.4,1s-0.1,0.7-0.4,1c-0.3,0.2-0.6,0.4-0.9,0.4
				c-0.4,0-0.7-0.1-1-0.4C1393.8,1118.9,1393.7,1118.6,1393.7,1118.2z"/>
		</g>
	</g>
	<g>
		<rect y="990" class="st5" width="18" height="18"/>
		<polygon class="st5" points="4.5,999 13.5,1003.5 13.5,994.5 		"/>
	</g>
	<g>
		<rect x="1863" y="990" class="st5" width="18" height="18"/>
		<polygon class="st5" points="1876.5,999 1867.5,994.5 1867.5,1003.5 		"/>
	</g>
	<g>
		<rect x="1881" y="972" class="st5" width="18" height="18"/>
		<polygon class="st5" points="1890,985.5 1894.5,976.5 1885.5,976.5 		"/>
	</g>
	<g>
		<rect x="1881" class="st5" width="18" height="18"/>
		<polygon class="st5" points="1890,4.5 1885.5,13.5 1894.5,13.5 		"/>
	</g>
	<rect x="72" y="1007.6" onclick="switchMode('DRAWING')" class="st9" width="72" height="72.4"/>
	<rect y="1007.6" onclick="switchMode('CONNECTING')" class="st9" width="72" height="72.4"/>
	<rect x="1828" y="1007.6" onclick="toggleRules(true)" class="st9" width="72" height="72.4"/>
	<rect x="1755" y="1007.6" onclick="toggleLayers(true)" class="st9" width="72" height="72.4"/>
	<rect id="SvgTarget" x="0" onclick="changeSelection('#Svg')" class="st9" width="1881" height="990"/>
	<rect id="GroupTarget" x="684" y="503.6" onclick="changeSelection('#Group')" class="st9" width="504" height="288.4"/>
	<g id="IndividualRectTargets">
		<rect x="1116" y="719.6" onclick="changeSelection('#Rect5')" class="st9" width="72" height="72.4"/>
		<rect x="1008" y="675" onclick="changeSelection('#Rect4')" class="st9" width="72" height="117"/>
		<rect x="900" y="540" onclick="changeSelection('#Rect3')" class="st9" width="72" height="252"/>
		<rect x="792" y="576" onclick="changeSelection('#Rect2')" class="st9" width="72" height="216"/>
		<rect x="684" y="504" onclick="changeSelection('#Rect1')" class="st9" width="72" height="288"/>
	</g>
	<g id="Rect1Selection">
		<rect x="675" y="495" class="st10" width="18" height="18"/>
		<rect x="747" y="495" class="st10" width="18" height="18"/>
		<rect x="675" y="783" class="st10" width="18" height="18"/>
		<rect x="747" y="783" class="st10" width="18" height="18"/>
	</g>
	<g id="Rect2Selection">
		<rect x="783" y="567" class="st10" width="18" height="18"/>
		<rect x="855" y="567" class="st10" width="18" height="18"/>
		<rect x="783" y="783" class="st10" width="18" height="18"/>
		<rect x="855" y="783" class="st10" width="18" height="18"/>
	</g>
	<g id="Rect3Selection">
		<rect x="891" y="531" class="st10" width="18" height="18"/>
		<rect x="963" y="531" class="st10" width="18" height="18"/>
		<rect x="891" y="783" class="st10" width="18" height="18"/>
		<rect x="963" y="783" class="st10" width="18" height="18"/>
	</g>
	<g id="Rect4Selection">
		<rect x="999" y="666" class="st10" width="18" height="18"/>
		<rect x="1071" y="666" class="st10" width="18" height="18"/>
		<rect x="999" y="783" class="st10" width="18" height="18"/>
		<rect x="1071" y="783" class="st10" width="18" height="18"/>
	</g>
	<g id="Rect5Selection">
		<rect x="1107" y="711" class="st10" width="18" height="18"/>
		<rect x="1179" y="711" class="st10" width="18" height="18"/>
		<rect x="1107" y="783" class="st10" width="18" height="18"/>
		<rect x="1179" y="783" class="st10" width="18" height="18"/>
	</g>
	<g id="GroupSelection">
		<rect x="675" y="495" class="st10" width="18" height="18"/>
		<rect x="1179" y="495" class="st10" width="18" height="18"/>
		<rect x="675" y="783" class="st10" width="18" height="18"/>
		<rect x="1179" y="783" class="st10" width="18" height="18"/>
	</g>
</g>
<g id="DataPanel" class="st11">
	<rect y="54" class="st12" width="576" height="936"/>
	<rect x="450" y="72" class="st13" width="54" height="36"/>
	<text transform="matrix(1 0 0 1 464.3965 99)" class="st14 st15 st7">spe</text>
	<polygon class="st12" points="324,54 117,54 135,18 306,18 	"/>
	<polygon class="st12" points="135,54 0,54 0,18 117,18 	"/>
	<g class="st14">
		<path d="M62,1018v52H10v-52H62 M63,1017H9v54h54V1017L63,1017z"/>
	</g>
	<g class="st14">
		<path d="M396,919c14.3,0,26,11.7,26,26s-11.7,26-26,26h-54c-14.3,0-26-11.7-26-26s11.7-26,26-26H396 M396,918h-54
			c-14.9,0-27,12.1-27,27s12.1,27,27,27h54c14.9,0,27-12.1,27-27S410.9,918,396,918L396,918z"/>
	</g>
	<g class="st14">
		<path d="M361.3,962.7c-8.9-8.9-17.8-17.9-26.8-26.8c-0.4-0.4-0.4-1.1,0-1.5l5.9-5.9c0.4-0.4,1.1-0.4,1.6,0l2,2.1l-4.4,4.3l1.2,1
			l4.2-4.3l2.7,2.7l-2.9,2.6l1.2,1.1l2.7-2.8l2.5,2.6l-4.4,4.2l1.2,1l4.2-4.3l2.5,2.5l-2.8,2.6l1.4,1.2l2.5-2.8l2.5,2.6l-4.4,4.3
			l1.2,1l4.2-4.4l2.7,2.7l-3,2.7l1.2,1.1l2.7-2.9l2.5,2.6l-4.3,4.2l1.2,1.1l4.2-4.2l2.2,2.3c0.4,0.4,0.4,1.1,0,1.5l-5.9,5.9
			C362.4,963.1,361.7,963.1,361.3,962.7z"/>
	</g>
	<text transform="matrix(1 0 0 1 36 954)" class="st14 st6 st7">Items without connections:</text>
	<path class="st12" d="M540,963h-72c-9.9,0-18-8.1-18-18l0,0c0-9.9,8.1-18,18-18h72c9.9,0,18,8.1,18,18l0,0
		C558,954.9,549.9,963,540,963z"/>
	<text transform="matrix(1 0 0 1 471.3965 954)" class="st14 st6 st7">Create</text>
	<text transform="matrix(1 0 0 1 135 44.9999)" class="st14 st6 st7">API call (json)</text>
	<path class="st14" d="M297,27c-5,0-9,4-9,9s4,9,9,9s9-4,9-9S302,27,297,27z M302.3,33h-1.8l-2.4,3.3c0.3,0.5,0.7,1,1,1.4
		s0.7,0.9,1,1.4h2.1v1.4h-5v-1.4h1c-0.3-0.4-0.5-0.7-0.8-1.1s-0.5-0.7-0.7-1l-1.5,2.1h0.9v1.4h-4.6v-1.4h1.8
		c0.4-0.6,0.8-1.1,1.2-1.7c0.4-0.5,0.8-1.1,1.2-1.7c-0.4-0.5-0.7-0.9-1-1.4s-0.7-0.9-1-1.4h-2.2v-1.5h5V33h-1l1.6,2.1l1.5-2.1h-1
		v-1.5h4.6L302.3,33L302.3,33z"/>
	<path class="st14" d="M108,27c-5,0-9,4-9,9s4,9,9,9s9-4,9-9S113,27,108,27z M113.3,33h-1.8l-2.4,3.3c0.3,0.5,0.7,1,1,1.4
		s0.7,0.9,1,1.4h2.1v1.4h-5v-1.4h1c-0.3-0.4-0.5-0.7-0.8-1.1s-0.5-0.7-0.7-1l-1.5,2.1h0.9v1.4h-4.6v-1.4h1.8
		c0.4-0.6,0.8-1.1,1.2-1.7c0.4-0.5,0.8-1.1,1.2-1.7c-0.4-0.5-0.7-0.9-1-1.4s-0.7-0.9-1-1.4h-2.2v-1.5h5V33h-1l1.6,2.1l1.5-2.1h-1
		v-1.5h4.6V33H113.3z"/>
	<polyline class="st16" points="387,940.5 396,949.5 405,940.5 	"/>
	<text transform="matrix(1 0 0 1 9 44.9999)" class="st14 st6 st7">File1.csv</text>
	<rect x="18" y="72" class="st13" width="72" height="36"/>
	<rect x="90" y="72" class="st13" width="72" height="36"/>
	<rect x="162" y="72" class="st13" width="72" height="36"/>
	<rect x="234" y="72" class="st13" width="72" height="36"/>
	<rect x="306" y="72" class="st13" width="72" height="36"/>
	<rect x="378" y="72" class="st13" width="72" height="36"/>
	<rect x="18" y="108" class="st13" width="72" height="36"/>
	<rect x="90" y="108" class="st12" width="72" height="36"/>
	<rect x="162" y="108" class="st12" width="72" height="36"/>
	<rect x="234" y="108" class="st12" width="72" height="36"/>
	<rect x="306" y="108" class="st12" width="72" height="36"/>
	<rect x="378" y="108" class="st12" width="72" height="36"/>
	<rect x="450" y="108" class="st12" width="54" height="36"/>
	<rect x="18" y="144" class="st13" width="72" height="36"/>
	<rect x="90" y="144" class="st12" width="72" height="36"/>
	<rect x="162" y="144" class="st12" width="72" height="36"/>
	<rect x="234" y="144" class="st12" width="72" height="36"/>
	<rect x="306" y="144" class="st12" width="72" height="36"/>
	<rect x="378" y="144" class="st12" width="72" height="36"/>
	<rect x="450" y="144" class="st12" width="54" height="36"/>
	<rect x="18" y="180" class="st13" width="72" height="36"/>
	<rect x="90" y="180" class="st12" width="72" height="36"/>
	<rect x="162" y="180" class="st12" width="72" height="36"/>
	<rect x="234" y="180" class="st12" width="72" height="36"/>
	<rect x="306" y="180" class="st12" width="72" height="36"/>
	<rect x="378" y="180" class="st12" width="72" height="36"/>
	<rect x="450" y="180" class="st12" width="54" height="36"/>
	<rect x="18" y="216" class="st13" width="72" height="36"/>
	<rect x="90" y="216" class="st12" width="72" height="36"/>
	<rect x="162" y="216" class="st12" width="72" height="36"/>
	<rect x="234" y="216" class="st12" width="72" height="36"/>
	<rect x="306" y="216" class="st12" width="72" height="36"/>
	<rect x="378" y="216" class="st12" width="72" height="36"/>
	<rect x="450" y="216" class="st12" width="54" height="36"/>
	<rect x="18" y="252" class="st13" width="72" height="36"/>
	<rect x="90" y="252" class="st12" width="72" height="36"/>
	<rect x="162" y="252" class="st12" width="72" height="36"/>
	<rect x="234" y="252" class="st12" width="72" height="36"/>
	<rect x="306" y="252" class="st12" width="72" height="36"/>
	<rect x="378" y="252" class="st12" width="72" height="36"/>
	<rect x="450" y="252" class="st12" width="54" height="36"/>
	<rect x="18" y="288" class="st13" width="72" height="36"/>
	<rect x="90" y="288" class="st12" width="72" height="36"/>
	<rect x="162" y="288" class="st12" width="72" height="36"/>
	<rect x="234" y="288" class="st12" width="72" height="36"/>
	<rect x="306" y="288" class="st12" width="72" height="36"/>
	<rect x="378" y="288" class="st12" width="72" height="36"/>
	<rect x="450" y="288" class="st12" width="54" height="36"/>
	<rect x="18" y="324" class="st13" width="72" height="36"/>
	<rect x="90" y="324" class="st12" width="72" height="36"/>
	<rect x="162" y="324" class="st12" width="72" height="36"/>
	<rect x="234" y="324" class="st12" width="72" height="36"/>
	<rect x="306" y="324" class="st12" width="72" height="36"/>
	<rect x="378" y="324" class="st12" width="72" height="36"/>
	<rect x="450" y="324" class="st12" width="54" height="36"/>
	<rect x="18" y="360" class="st13" width="72" height="36"/>
	<rect x="90" y="360" class="st12" width="72" height="36"/>
	<rect x="162" y="360" class="st12" width="72" height="36"/>
	<rect x="234" y="360" class="st12" width="72" height="36"/>
	<rect x="306" y="360" class="st12" width="72" height="36"/>
	<rect x="378" y="360" class="st12" width="72" height="36"/>
	<rect x="450" y="360" class="st12" width="54" height="36"/>
	<rect x="18" y="396" class="st13" width="72" height="36"/>
	<rect x="90" y="396" class="st12" width="72" height="36"/>
	<rect x="162" y="396" class="st12" width="72" height="36"/>
	<rect x="234" y="396" class="st12" width="72" height="36"/>
	<rect x="306" y="396" class="st12" width="72" height="36"/>
	<rect x="378" y="396" class="st12" width="72" height="36"/>
	<rect x="450" y="396" class="st12" width="54" height="36"/>
	<rect x="18" y="432" class="st13" width="72" height="36"/>
	<rect x="90" y="432" class="st12" width="72" height="36"/>
	<rect x="162" y="432" class="st12" width="72" height="36"/>
	<rect x="234" y="432" class="st12" width="72" height="36"/>
	<rect x="306" y="432" class="st12" width="72" height="36"/>
	<rect x="378" y="432" class="st12" width="72" height="36"/>
	<rect x="450" y="432" class="st12" width="54" height="36"/>
	<rect x="18" y="468" class="st13" width="72" height="36"/>
	<rect x="90" y="468" class="st12" width="72" height="36"/>
	<rect x="162" y="468" class="st12" width="72" height="36"/>
	<rect x="234" y="468" class="st12" width="72" height="36"/>
	<rect x="306" y="468" class="st12" width="72" height="36"/>
	<rect x="378" y="468" class="st12" width="72" height="36"/>
	<rect x="450" y="468" class="st12" width="54" height="36"/>
	<rect x="18" y="504" class="st13" width="72" height="36"/>
	<rect x="90" y="504" class="st12" width="72" height="36"/>
	<rect x="162" y="504" class="st12" width="72" height="36"/>
	<rect x="234" y="504" class="st12" width="72" height="36"/>
	<rect x="306" y="504" class="st12" width="72" height="36"/>
	<rect x="378" y="504" class="st12" width="72" height="36"/>
	<rect x="450" y="504" class="st12" width="54" height="36"/>
	<rect x="18" y="540" class="st13" width="72" height="36"/>
	<rect x="90" y="540" class="st12" width="72" height="36"/>
	<rect x="162" y="540" class="st12" width="72" height="36"/>
	<rect x="234" y="540" class="st12" width="72" height="36"/>
	<rect x="306" y="540" class="st12" width="72" height="36"/>
	<rect x="378" y="540" class="st12" width="72" height="36"/>
	<rect x="450" y="540" class="st12" width="54" height="36"/>
	<rect x="18" y="576" class="st13" width="72" height="36"/>
	<rect x="90" y="576" class="st12" width="72" height="36"/>
	<rect x="162" y="576" class="st12" width="72" height="36"/>
	<rect x="234" y="576" class="st12" width="72" height="36"/>
	<rect x="306" y="576" class="st12" width="72" height="36"/>
	<rect x="378" y="576" class="st12" width="72" height="36"/>
	<rect x="450" y="576" class="st12" width="54" height="36"/>
	<rect x="18" y="612" class="st13" width="72" height="36"/>
	<rect x="90" y="612" class="st12" width="72" height="36"/>
	<rect x="162" y="612" class="st12" width="72" height="36"/>
	<rect x="234" y="612" class="st12" width="72" height="36"/>
	<rect x="306" y="612" class="st12" width="72" height="36"/>
	<rect x="378" y="612" class="st12" width="72" height="36"/>
	<rect x="450" y="612" class="st12" width="54" height="36"/>
	<rect x="18" y="648" class="st13" width="72" height="36"/>
	<rect x="90" y="648" class="st12" width="72" height="36"/>
	<rect x="162" y="648" class="st12" width="72" height="36"/>
	<rect x="234" y="648" class="st12" width="72" height="36"/>
	<rect x="306" y="648" class="st12" width="72" height="36"/>
	<rect x="378" y="648" class="st12" width="72" height="36"/>
	<rect x="450" y="648" class="st12" width="54" height="36"/>
	<rect x="18" y="684" class="st13" width="72" height="36"/>
	<rect x="90" y="684" class="st12" width="72" height="36"/>
	<rect x="162" y="684" class="st12" width="72" height="36"/>
	<rect x="234" y="684" class="st12" width="72" height="36"/>
	<rect x="306" y="684" class="st12" width="72" height="36"/>
	<rect x="378" y="684" class="st12" width="72" height="36"/>
	<rect x="450" y="684" class="st12" width="54" height="36"/>
	<rect x="18" y="720" class="st13" width="72" height="36"/>
	<rect x="90" y="720" class="st12" width="72" height="36"/>
	<rect x="162" y="720" class="st12" width="72" height="36"/>
	<rect x="234" y="720" class="st12" width="72" height="36"/>
	<rect x="306" y="720" class="st12" width="72" height="36"/>
	<rect x="378" y="720" class="st12" width="72" height="36"/>
	<rect x="450" y="720" class="st12" width="54" height="36"/>
	<rect x="18" y="756" class="st13" width="72" height="36"/>
	<rect x="90" y="756" class="st12" width="72" height="36"/>
	<rect x="162" y="756" class="st12" width="72" height="36"/>
	<rect x="234" y="756" class="st12" width="72" height="36"/>
	<rect x="306" y="756" class="st12" width="72" height="36"/>
	<rect x="378" y="756" class="st12" width="72" height="36"/>
	<rect x="450" y="756" class="st12" width="54" height="36"/>
	<rect x="18" y="792" class="st13" width="72" height="36"/>
	<rect x="90" y="792" class="st12" width="72" height="36"/>
	<rect x="162" y="792" class="st12" width="72" height="36"/>
	<rect x="234" y="792" class="st12" width="72" height="36"/>
	<rect x="306" y="792" class="st12" width="72" height="36"/>
	<rect x="378" y="792" class="st12" width="72" height="36"/>
	<rect x="450" y="792" class="st12" width="54" height="36"/>
	<rect x="18" y="828" class="st13" width="72" height="36"/>
	<rect x="90" y="828" class="st12" width="72" height="36"/>
	<rect x="162" y="828" class="st12" width="72" height="36"/>
	<rect x="234" y="828" class="st12" width="72" height="36"/>
	<rect x="306" y="828" class="st12" width="72" height="36"/>
	<rect x="378" y="828" class="st12" width="72" height="36"/>
	<rect x="450" y="828" class="st12" width="54" height="36"/>
	<rect x="18" y="864" class="st13" width="72" height="18"/>
	<rect x="90" y="864" class="st12" width="72" height="18"/>
	<rect x="162" y="864" class="st12" width="72" height="18"/>
	<rect x="234" y="864" class="st12" width="72" height="18"/>
	<rect x="306" y="864" class="st12" width="72" height="18"/>
	<rect x="378" y="864" class="st12" width="72" height="18"/>
	<rect x="450" y="864" class="st12" width="54" height="18"/>
	<rect x="18" y="882" class="st12" width="486" height="18"/>
	<rect x="504" y="882" class="st12" width="18" height="18"/>
	<rect x="504" y="72" class="st12" width="18" height="810"/>
	<text transform="matrix(1 0 0 1 32.3965 99)" class="st14 st15 st7">row</text>
	<text transform="matrix(1 0 0 1 97.1953 99)" class="st14 st15 st7">mass</text>
	<text transform="matrix(1 0 0 1 169.1953 99)" class="st14 st15 st7">time</text>
	<text transform="matrix(1 0 0 1 248.3965 99)" class="st14 st15 st7">vol</text>
	<text transform="matrix(1 0 0 1 313.1953 99)" class="st14 st15 st7">type</text>
	<text transform="matrix(1 0 0 1 392.3965 99)" class="st14 st15 st7">dmg</text>
	<g class="st14">
		<circle cx="549" cy="126" r="9"/>
		<text transform="matrix(1 0 0 1 544.7993 130.5005)" class="st8 st17 st18">1</text>
	</g>
	<g class="st14">
		<circle cx="549" cy="162" r="9"/>
		<text transform="matrix(1 0 0 1 544.7993 166.5005)" class="st8 st17 st18">1</text>
	</g>
	<g class="st14">
		<circle cx="549" cy="198" r="9"/>
		<text transform="matrix(1 0 0 1 544.7993 202.5005)" class="st8 st17 st18">1</text>
	</g>
	<g class="st14">
		<circle cx="549" cy="234" r="9"/>
		<text transform="matrix(1 0 0 1 544.7993 238.5005)" class="st8 st17 st18">1</text>
	</g>
	<g class="st14">
		<circle cx="549" cy="270" r="9"/>
		<text transform="matrix(1 0 0 1 544.7993 274.5005)" class="st8 st17 st18">1</text>
	</g>
	<g class="st14">
		<circle class="st19" cx="549" cy="306" r="9"/>
		<text transform="matrix(1 0 0 1 544.7993 310.5005)" class="st17 st18">0</text>
	</g>
	<g class="st14">
		<circle class="st19" cx="549" cy="342" r="9"/>
		<text transform="matrix(1 0 0 1 544.7993 346.5005)" class="st17 st18">0</text>
	</g>
	<g class="st14">
		<circle class="st19" cx="549" cy="378" r="9"/>
		<text transform="matrix(1 0 0 1 544.7993 382.5005)" class="st17 st18">0</text>
	</g>
	<g class="st14">
		<circle class="st19" cx="549" cy="414" r="9"/>
		<text transform="matrix(1 0 0 1 544.7993 418.5005)" class="st17 st18">0</text>
	</g>
	<g class="st14">
		<circle class="st19" cx="549" cy="450" r="9"/>
		<text transform="matrix(1 0 0 1 544.7993 454.5005)" class="st17 st18">0</text>
	</g>
	<g class="st14">
		<circle class="st19" cx="549" cy="486" r="9"/>
		<text transform="matrix(1 0 0 1 544.7993 490.5005)" class="st17 st18">0</text>
	</g>
	<g class="st14">
		<circle class="st19" cx="549" cy="522" r="9"/>
		<text transform="matrix(1 0 0 1 544.7993 526.5005)" class="st17 st18">0</text>
	</g>
	<g class="st14">
		<circle class="st19" cx="549" cy="558" r="9"/>
		<text transform="matrix(1 0 0 1 544.7993 562.5005)" class="st17 st18">0</text>
	</g>
	<g class="st14">
		<circle class="st19" cx="549" cy="594" r="9"/>
		<text transform="matrix(1 0 0 1 544.7993 598.5005)" class="st17 st18">0</text>
	</g>
	<g class="st14">
		<circle class="st19" cx="549" cy="630" r="9"/>
		<text transform="matrix(1 0 0 1 544.7993 634.5005)" class="st17 st18">0</text>
	</g>
	<g class="st14">
		<circle class="st19" cx="549" cy="666" r="9"/>
		<text transform="matrix(1 0 0 1 544.7993 670.5005)" class="st17 st18">0</text>
	</g>
	<g class="st14">
		<circle class="st19" cx="549" cy="702" r="9"/>
		<text transform="matrix(1 0 0 1 544.7993 706.5005)" class="st17 st18">0</text>
	</g>
	<g class="st14">
		<circle class="st19" cx="549" cy="738" r="9"/>
		<text transform="matrix(1 0 0 1 544.7993 742.5005)" class="st17 st18">0</text>
	</g>
	<g class="st14">
		<circle class="st19" cx="549" cy="774" r="9"/>
		<text transform="matrix(1 0 0 1 544.7993 778.5005)" class="st17 st18">0</text>
	</g>
	<g class="st14">
		<circle class="st19" cx="549" cy="810" r="9"/>
		<text transform="matrix(1 0 0 1 544.7993 814.5005)" class="st17 st18">0</text>
	</g>
	<g class="st14">
		<circle class="st19" cx="549" cy="846" r="9"/>
		<text transform="matrix(1 0 0 1 544.7993 850.5005)" class="st17 st18">0</text>
	</g>
	<g class="st14">
		<rect x="504" y="72" class="st5" width="18" height="18"/>
		<polygon class="st5" points="513,76.5 508.5,85.5 517.5,85.5 		"/>
	</g>
	<g class="st14">
		<rect x="504" y="864" class="st5" width="18" height="18"/>
		<polygon class="st5" points="513,877.5 517.5,868.5 508.5,868.5 		"/>
	</g>
	<g class="st14">
		<rect x="486" y="882" class="st5" width="18" height="18"/>
		<polygon class="st5" points="499.5,891 490.5,886.5 490.5,895.5 		"/>
	</g>
	<g class="st14">
		<rect x="18" y="882" class="st5" width="18" height="18"/>
		<polygon class="st5" points="22.5,891 31.5,895.5 31.5,886.5 		"/>
	</g>
	<rect y="1007.6" onclick="switchMode(null)" class="st20" width="72" height="72.4"/>
	<rect x="72" y="1007.6" onclick="switchMode('DRAWING')" class="st20" width="72" height="72.4"/>
</g>
<g id="DrawingTools">
	<rect class="st5" width="72" height="990"/>
	<g>
		<path d="M134,1018v52H82v-52H134 M135,1017H81v54h54V1017L135,1017z"/>
	</g>
	<g id="ZzcdRj.tif">
		<g>
			<path d="M34,61.4c-2.4,2.1-4.6,4-7,6.1c0-10.6,0-21.1,0-31.5c7.4,7.4,14.8,14.9,22.2,22.3c-2.8,0.2-5.8,0.4-8.9,0.6
				c1.5,3.6,2.9,7,4.4,10.6c-2.1,0.8-4.1,1.7-6.3,2.5C36.9,68.4,35.5,65,34,61.4z"/>
		</g>
	</g>
	<path d="M38.9,143.9c-0.5,0-1.1-0.3-1.3-0.9l-3.3-8l-5,4.3c-0.4,0.4-1,0.4-1.5,0.2c-0.5-0.2-0.8-0.7-0.8-1.3v-29.1
		c0-0.6,0.3-1.1,0.9-1.3c0.5-0.2,1.1-0.1,1.5,0.3l20.5,20.8c0.4,0.4,0.5,1,0.3,1.5s-0.7,0.9-1.2,0.9l-6.3,0.5l3.3,8
		c0.1,0.3,0.1,0.7,0,1.1c-0.1,0.3-0.4,0.6-0.8,0.7l-5.8,2.3C39.2,143.9,39.1,143.9,38.9,143.9z M34.8,131.4c0.1,0,0.2,0,0.3,0
		c0.4,0.1,0.8,0.4,1,0.8l3.5,8.5l3.2-1.3l-3.5-8.5c-0.2-0.4-0.1-0.9,0.1-1.3c0.2-0.4,0.6-0.6,1.1-0.7l5.2-0.4l-16-16v22.7l4.2-3.6
		C34.2,131.5,34.5,131.4,34.8,131.4z"/>
	<g id="CQEJGW.tif">
		<g>
			<path d="M18,214.4c0.3-0.9,0.7-1.9,1-2.8c0.6-2,1.3-3.9,1.9-5.9c0.7-2.4,1.4-4.9,2.1-7.3c0.2-0.6,0.3-1.2,0.4-1.9
				c0.7,0,1.4,0,2.1,0c1.9-0.1,3.7-0.3,5.5-0.9c1.3-0.5,2.4-1.1,3.4-2c0.3-0.2,0.5-0.4,0.7-0.6c1.9,1.9,3.9,3.9,5.8,5.8
				c-0.4,0.4-0.8,0.9-1.2,1.4c-0.8,1-1.3,2.2-1.7,3.4c-0.4,1.4-0.6,2.7-0.6,4.2c0,0.5,0,1.1-0.1,1.6c0,0.4-0.1,0.8-0.1,1.2
				c-1,0.2-2,0.5-3.1,0.7c-1.4,0.4-2.9,0.8-4.3,1.2c-3.4,1.1-6.8,2.2-10.2,3.2c-0.1,0-0.2,0.1-0.3,0.1c-0.1,0-0.1,0-0.2,0
				c0,0,0,0,0-0.1c3-3,6.1-6.1,9.1-9.1c0.1-0.1,0.2-0.1,0.3-0.1c0.9,0.1,1.7-0.3,2.1-1.2c0.6-1.3-0.5-2.7-1.9-2.6
				c-1.2,0.1-1.9,1-1.7,2.2c0,0.2,0,0.3-0.2,0.5c-2.9,2.9-5.9,5.9-8.8,8.8c-0.1,0.1-0.2,0.1-0.2,0.2C18,214.6,18,214.5,18,214.4z"/>
			<path d="M54,188.9c-0.8,0.7-1.6,1.4-2.5,2.1c-1,0.8-2,1.7-3,2.5c-0.8,0.7-1.7,1.4-2.5,2.1c-0.9,0.8-1.8,1.5-2.7,2.3
				c-0.1,0.1-0.3,0-0.3,0c-0.5-0.4-0.9-0.9-1.4-1.3c-1.9-1.9-3.7-3.7-5.6-5.6c-0.2-0.2-0.2-0.3,0-0.6c0.7-0.8,1.3-1.6,2-2.3
				c0.5-0.6,1-1.1,1.5-1.7c0.7-0.8,1.4-1.6,2.1-2.5c0.5-0.6,1-1.1,1.4-1.7c0.7-0.8,1.3-1.5,2-2.3c0,0,0,0,0.1,0l0.1,0.1
				c1.5,1.5,3,3.1,4.6,4.6c1,1,1.9,1.9,2.9,2.9C53.1,188,53.6,188.4,54,188.9L54,188.9z"/>
		</g>
	</g>
	<g>
		<path d="M25.8,873h0.5c0.8,0,1.5-0.7,1.5-1.5v-15c0-0.8-0.7-1.5-1.5-1.5h-2c-0.8,0-1.5,0.7-1.5,1.5v0.1c0,0.8-0.7,1.5-1.5,1.5
			h-0.2c-0.8,0-1.5-0.7-1.5-1.5v-3.4c0-0.8,0.7-1.5,1.5-1.5h17.1c0.8,0,1.5,0.7,1.5,1.5v3.4c0,0.8-0.7,1.5-1.5,1.5H38
			c-0.8,0-1.5-0.7-1.5-1.5v-0.1c0-0.8-0.7-1.5-1.5-1.5h-2c-0.8,0-1.5,0.7-1.5,1.5v15c0,0.8,0.7,1.5,1.5,1.5l0,0
			c0.8,0,1.5,0.7,1.5,1.5v0.3c0,0.8-0.7,1.5-1.5,1.5h-7c-0.8,0-1.5-0.7-1.5-1.5v-0.3C24.3,873.7,25,873,25.8,873z"/>
		<path d="M45.5,878.7h0.2c0.8,0,1.5-0.7,1.5-1.5v-26.4c0-0.8-0.7-1.5-1.5-1.5h-0.2c-0.8,0-1.5-0.7-1.5-1.5v-0.3
			c0-0.8,0.7-1.5,1.5-1.5h7c0.8,0,1.5,0.7,1.5,1.5v0.3c0,0.8-0.7,1.5-1.5,1.5h-0.3c-0.8,0-1.5,0.7-1.5,1.5v26.4
			c0,0.8,0.7,1.5,1.5,1.5h0.3c0.8,0,1.5,0.7,1.5,1.5v0.3c0,0.8-0.7,1.5-1.5,1.5h-7c-0.8,0-1.5-0.7-1.5-1.5v-0.3
			C44,879.4,44.6,878.7,45.5,878.7z"/>
	</g>
	<path d="M54,288H18v-36h36V288z M22.5,283.5h27v-27h-27V283.5z"/>
	<g id="qwaAmX.tif">
		<g>
			<path d="M50.3,644.6c0.5,2.8,0.5,5.3-0.6,7.7c-1.3,3.1-3.9,4.4-7,4.5c-1.5,0.1-2.4,0.6-3,2c-0.4,1-1,2-1.6,2.9
				c-2.7,4.3-6.2,5.4-10.7,3.2s-7.7-5.5-8.8-10.6c-1.1-5.1-0.2-9.8,2.8-14c4.5-6.5,13.4-8.3,19.4-6.3c1.5,0.5,2.9,1.5,4.4,2.2
				c0.5,0.3,0.5,0.6,0.3,1.1c-1,3-2.1,5.9-3.1,8.9c-0.3,0.9-0.4,1.9-0.3,2.8c0.1,1.1,0.6,2,1.8,2.4c1.1,0.3,2-0.2,2.6-1.1
				c1-1.3,1.9-2.8,2.9-4.2C49.6,645.8,49.8,645.3,50.3,644.6z M31.8,637.4c-1.6,0.1-2.8,1.5-2.7,3.2c0.1,1.6,1.5,2.9,3.2,2.8
				c1.6-0.1,2.9-1.6,2.7-3.2C34.9,638.5,33.5,637.3,31.8,637.4z M29,645.8c-0.1-1.6-1.6-2.8-3.2-2.7c-1.6,0.1-2.8,1.6-2.7,3.2
				c0.1,1.6,1.6,2.9,3.2,2.7C27.9,648.9,29.1,647.4,29,645.8z M27.9,653.6c-0.1-1.6-1.6-2.8-3.2-2.7s-2.8,1.6-2.7,3.2
				c0.1,1.6,1.6,2.9,3.2,2.7C26.8,656.7,28.1,655.3,27.9,653.6z M31.1,656.4c-1.6,0.1-2.8,1.6-2.7,3.2c0.1,1.6,1.6,2.9,3.2,2.7
				c1.6-0.1,2.8-1.6,2.7-3.2C34.1,657.5,32.7,656.3,31.1,656.4z"/>
			<path d="M53,630c1,1.9,1.4,3.8,0.6,5.8c-0.7,1.5-2.5,2.1-4,1.4s-2.2-2.6-1.4-4.1c0.7-1.4,1.8-2.4,3.4-2.6
				C52,630.4,52.4,630.2,53,630z"/>
			<path d="M46.2,647.6c-0.9,0.6-1.7,0.2-1.8-0.8c0-0.3-0.1-0.7,0-1c0.5-1.6,1-3.3,1.5-4.9c0,0,0.9-2.7,1.1-3.3
				c1.4,1.9,2.6,2.3,4.9,1.6C51.4,639.9,46.6,647.3,46.2,647.6z"/>
		</g>
	</g>
	<g>
		<path d="M49.8,944.9c0.2-0.1,0.4-0.1,0.6-0.2c0.2,0,0.4-0.1,0.6-0.1c0.4,0,0.8,0.1,1.2,0.2s0.7,0.4,1,0.7c0.3,0.3,0.5,0.6,0.7,1
			c0.2,0.4,0.2,0.8,0.2,1.2s-0.1,0.8-0.2,1.2c-0.1,0.4-0.4,0.7-0.7,1c-0.3,0.3-0.6,0.5-1,0.7s-0.8,0.2-1.2,0.2
			c-0.8,0-1.5-0.2-2.1-0.7s-1.1-1.1-1.6-2.1c0,1.6,0.4,2.9,1.1,3.7c0.7,0.8,1.9,1.3,3.4,1.5l0.1,0.5h-9.4l0.1-0.5
			c1.5-0.1,2.6-0.7,3.4-1.5c0.7-0.9,1.1-2.1,1.1-3.7c-0.5,0.9-1,1.6-1.6,2.1c-0.6,0.4-1.3,0.7-2.1,0.7c-0.4,0-0.8-0.1-1.2-0.2
			c-0.4-0.2-0.7-0.4-1-0.7c-0.3-0.3-0.5-0.7-0.7-1c-0.2-0.3-0.2-0.8-0.2-1.2s0.1-0.8,0.2-1.2c0.2-0.4,0.4-0.7,0.7-1
			c0.3-0.3,0.6-0.5,1-0.7s0.8-0.2,1.2-0.2c0.2,0,0.4,0,0.6,0.1c0.2,0,0.4,0.1,0.6,0.2c-0.2-0.3-0.3-0.6-0.4-0.8
			c-0.1-0.2-0.1-0.6-0.1-0.9c0-0.4,0.1-0.8,0.2-1.2c0.2-0.4,0.4-0.7,0.7-1c0.3-0.3,0.6-0.5,1-0.7s0.8-0.2,1.2-0.2s0.8,0.1,1.2,0.2
			c0.4,0.2,0.7,0.4,1,0.7c0.3,0.3,0.5,0.6,0.7,1c0.2,0.4,0.2,0.8,0.2,1.2c0,0.3,0,0.6-0.1,0.9S50,944.6,49.8,944.9z"/>
		<path d="M52.3,925c-1,1.1-1.9,2.2-2.8,3.4c-0.9,1.2-1.7,2.4-2.4,3.6c-0.7-1.2-1.5-2.4-2.4-3.6c-0.9-1.2-1.8-2.3-2.8-3.4
			c1-1.1,1.9-2.2,2.7-3.4c0.9-1.2,1.7-2.4,2.4-3.6c0.7,1.2,1.5,2.4,2.4,3.6S51.3,923.9,52.3,925z"/>
		<path d="M24.3,942.9c0.3-1,0.7-1.7,1.2-2.2s1.2-0.7,2-0.7s1.6,0.3,2.1,0.8c0.6,0.6,0.9,1.2,0.9,2c0,0.5-0.2,1.2-0.5,1.9
			s-0.8,1.5-1.5,2.3l-0.5,0.6c-2.2,2.8-3.4,4.9-3.8,6.3c-0.4-1.4-1.6-3.5-3.8-6.4c-0.2-0.2-0.3-0.4-0.4-0.6
			c-0.6-0.8-1.1-1.6-1.5-2.3s-0.5-1.4-0.5-1.9c0-0.8,0.3-1.5,0.9-2c0.6-0.6,1.3-0.8,2.1-0.8c0.8,0,1.4,0.2,2,0.7
			C23.6,941.2,24,941.9,24.3,942.9z"/>
		<path d="M24.3,918c0.2,1.3,1.1,2.7,2.8,4.2c0.1,0.1,0.2,0.1,0.2,0.2c0.1,0,0.1,0.1,0.2,0.2c1.7,1.5,2.5,2.7,2.5,3.7
			c0,0.7-0.3,1.4-0.8,1.9s-1.1,0.8-1.9,0.8c-0.6,0-1.2-0.2-1.7-0.5s-0.9-0.9-1.2-1.6c0,1.6,0.4,2.7,1.1,3.5s1.8,1.2,3.3,1.2l0.1,0.5
			h-9.1l0.1-0.5c1.5,0,2.6-0.4,3.3-1.2c0.7-0.8,1.1-1.9,1.1-3.5c-0.3,0.7-0.8,1.2-1.2,1.6c-0.5,0.3-1,0.5-1.7,0.5
			c-0.8,0-1.4-0.3-1.9-0.8s-0.8-1.1-0.8-1.9c0-0.9,0.8-2.2,2.4-3.6l0.3-0.3l0.2-0.2C23.2,920.7,24.1,919.3,24.3,918z"/>
	</g>
	<g>
		<rect x="18" y="774" width="2.2" height="1.9"/>
		<path d="M47.2,775.9h-4.5V774h4.5V775.9z M38.2,775.9h-4.5V774h4.5V775.9z M29.2,775.9h-4.5V774h4.5V775.9z"/>
		<rect x="51.8" y="774" width="2.2" height="1.9"/>
		<rect x="18" y="783.5" width="36" height="1.9"/>
		<rect x="18" y="793" width="36" height="3.7"/>
		<rect x="18" y="802.6" width="36" height="7.4"/>
	</g>
	<g>
		<path d="M20.4,711c-1.5,2.6-2.4,5.7-2.4,9h9v-9H20.4z"/>
		<path d="M36,702c-3.3,0-6.4,0.9-9,2.4v6.6h9V702z"/>
		<path d="M27,735.6V729h-6.6C22,731.7,24.3,734,27,735.6z"/>
		<path d="M36,738c3.3,0,6.4-0.9,9-2.4V729h-9V738z"/>
		<path d="M45,704.4v6.6h6.6C50,708.3,47.7,706,45,704.4z"/>
		<path d="M45,729h6.6c1.5-2.6,2.4-5.7,2.4-9h-9V729z"/>
		<rect x="36" y="711" width="9" height="9"/>
		<rect x="27" y="720" width="9" height="9"/>
	</g>
	<g>
		<path d="M18,355.9h4.1c2.3-5.5,4.6-11,6.9-16.4s4.6-10.9,6.9-16.4c2.3,5.5,4.6,11,6.9,16.4c2.3,5.4,4.6,10.9,6.9,16.4H54v4H42.9
			v-4h2.8c-0.7-1.7-1.4-3.3-2.1-5c-0.7-1.6-1.4-3.3-2.1-5h-11l-4.2,9.9h2.9v4H18V355.9z M36.4,334.1l-0.5-1.7c0,0.1-0.1,0.2-0.1,0.4
			c0,0.2-0.1,0.4-0.1,0.6c-0.1,0.2-0.2,0.5-0.3,0.8c-0.4,1-0.8,1.9-1.2,2.9c-0.3,0.8-0.7,1.7-1.1,2.6c-0.4,0.9-0.7,1.8-1,2.5h7.6
			L36.4,334.1z"/>
	</g>
	<g>
		<rect x="35.1" y="426.8" width="10.4" height="10.4"/>
		<g>
			<polygon points="39.3,414 39.3,424.9 47.5,424.9 47.5,439.1 39.3,439.1 39.3,450 49.7,450 49.7,414 			"/>
		</g>
		<rect x="22.9" y="422.6" width="10.4" height="18.9"/>
		<rect x="18" y="431.1" width="36" height="1.9"/>
	</g>
	<rect x="72" y="1007.6" onclick="switchMode(null)" class="st9" width="72" height="72.4"/>
	<rect y="1007.6" onclick="switchMode('CONNECTING')" class="st9" width="72" height="72.4"/>
	<line class="st10" x1="9" y1="386.9" x2="63" y2="386.9"/>
	<g id="n7Qlfu.tif">
		<g>
			<path d="M30.1,486.6c7.3-2.4,14.9,0.4,19.5,7.1c0,0,0,0,0,0c0.2,0.3,0.7,0.4,1.1,0.2l2-1.3c0.6-0.4,1.3,0.1,1.2,0.8
				c-0.7,3.2-1.4,6.3-2.1,9.4c-0.1,0.4-0.5,0.7-1,0.6c-2.9-0.7-5.8-1.5-8.8-2.2c-0.7-0.2-0.8-1.1-0.2-1.4l2.7-1.7
				c0.3-0.2,0.5-0.6,0.3-1c-2.2-4.4-8.9-6.5-14.1-4.2c-5.8,2.5-8.4,9.8-5.8,16c2.4,5.7,9,9.2,15.8,5.8c0.4-0.2,0.8-0.1,1,0.3
				l2.2,3.8c0.2,0.4,0.1,0.9-0.3,1.1c-0.4,0.2-0.9,0.5-1,0.5c-6.6,3.1-14.2,1.8-19.3-3.6c-0.5-0.6-2.1-2.3-3.7-5.7
				c-3-6.6-1.3-14.4,3.4-19.8C25.1,488.9,29.4,486.8,30.1,486.6z"/>
		</g>
	</g>
	<g id="jMIPO4.tif">
		<g>
			<path d="M19.1,578.3l6.8,0c0.6,0,1.1-0.5,1.1-1.1l0-18c0-0.6,0.5-1.1,1.1-1.1h24.7c0.6,0,1.1,0.5,1.1,1.1v24.7
				c0,0.6-0.5,1.1-1.1,1.1l-18,0c-0.6,0-1.1,0.5-1.1,1.1l0,6.8c0,0.6-0.5,1.1-1.1,1.1H19.1c-0.6,0-1.1-0.5-1.1-1.1v-13.4
				C18,578.8,18.5,578.3,19.1,578.3z M49.4,568.3L49.4,568.3l0-4.5c0-0.6-0.5-1.1-1.2-1.1l-8.1,0.1c-0.6,0-1.1,0.5-1.1,1.1l0,0
				c0,0.6,0.5,1.2,1.1,1.2l2.3,0.1c1,0,1.5,1.2,0.8,1.9l-19.4,19.6c-0.4,0.5-0.4,1.2,0,1.6l0.1,0.1c0.4,0.4,1.2,0.4,1.6,0L45,569
				c0.7-0.7,1.9-0.2,1.9,0.8l0.1,1.7c0,0.6,0.6,1.1,1.2,1.1l0.1,0c0.6,0,1.1-0.5,1.1-1.1L49.4,568.3L49.4,568.3z"/>
		</g>
	</g>
</g>
<g id="LayersWidget">
	<g>
		<path d="M1817,1018v52h-52v-52H1817 M1818,1017h-54v54h54V1017L1818,1017z"/>
	</g>
	<rect x="1755" y="1007.6" onclick="toggleLayers(false)" class="st9" width="72" height="72.4"/>
	<g id="PieceToShift">
		<rect x="729" y="18" class="st5" width="576" height="972"/>
		<rect x="729" y="972" class="st5" width="558" height="18"/>
		<rect x="1287" y="972" class="st5" width="18" height="18"/>
		<rect x="1287" y="18" class="st5" width="18" height="954"/>
		<rect x="756" y="153" class="st5" width="477" height="27"/>
		<rect x="756" y="180" class="st5" width="477" height="27"/>
		<rect x="756" y="45" class="st5" width="477" height="27"/>
		<rect x="810" y="45" class="st5" width="27" height="27"/>
		<rect x="729" y="45" class="st5" width="27" height="27"/>
		<text transform="matrix(1 0 0 1 846 63)" class="st6 st7">g</text>
		<polygon points="796.5,63 801,54 792,54 		"/>
		<rect x="756" y="72" class="st5" width="477" height="27"/>
		<rect x="837" y="72" class="st5" width="27" height="27"/>
		<text transform="matrix(1 0 0 1 873 90)" class="st6 st7">rect</text>
		<rect x="756" y="99" class="st5" width="477" height="27"/>
		<rect x="837" y="99" class="st5" width="27" height="27"/>
		<text transform="matrix(1 0 0 1 873 117)" class="st6 st7">rect</text>
		<rect x="756" y="126" class="st5" width="477" height="27"/>
		<rect x="837" y="126" class="st5" width="27" height="27"/>
		<text transform="matrix(1 0 0 1 873 144)" class="st6 st7">rect</text>
		<g>
			<rect x="729" y="72" class="st5" width="27" height="27"/>
			<circle cx="742.5" cy="85.5" r="9"/>
			<text transform="matrix(1 0 0 1 738.2993 90.0005)" class="st8 st17 st18">1</text>
		</g>
		<circle cx="1219.5" cy="85.5" r="9"/>
		<circle cx="1219.5" cy="112.5" r="9"/>
		<circle cx="1219.5" cy="139.5" r="9"/>
		<circle cx="1219.5" cy="166.5" r="9"/>
		<circle cx="1219.5" cy="193.5" r="9"/>
		<g>
			<rect x="729" y="99" class="st5" width="27" height="27"/>
			<circle cx="742.5" cy="112.5" r="9"/>
			<text transform="matrix(1 0 0 1 738.2993 117.0005)" class="st8 st17 st18">1</text>
		</g>
		<g>
			<rect x="729" y="126" class="st5" width="27" height="27"/>
			<circle cx="742.5" cy="139.5" r="9"/>
			<text transform="matrix(1 0 0 1 738.2993 144.0005)" class="st8 st17 st18">1</text>
		</g>
		<g>
			<rect x="729" y="153" class="st5" width="27" height="27"/>
			<circle cx="742.5" cy="166.5" r="9"/>
			<text transform="matrix(1 0 0 1 738.2993 171.0005)" class="st8 st17 st18">1</text>
		</g>
		<g>
			<rect x="729" y="180" class="st5" width="27" height="27"/>
			<circle cx="742.5" cy="193.5" r="9"/>
			<text transform="matrix(1 0 0 1 738.2993 198.0005)" class="st8 st17 st18">1</text>
		</g>
		<g>
			<path d="M1227,71.8c-6.9-6.9-13.9-13.8-20.8-20.8c-0.3-0.3-0.3-0.9,0-1.2l4.6-4.6c0.3-0.3,0.9-0.3,1.2,0l1.6,1.6l-3.4,3.3
				l0.9,0.8l3.2-3.3l2.1,2.1l-2.2,2l0.9,0.8l2.1-2.2l2,2l-3.4,3.3l0.9,0.8l3.2-3.3l2,2l-2.2,2l1.1,0.9l2-2.2l2,2l-3.4,3.3l0.9,0.8
				l3.3-3.4l2.1,2.1l-2.3,2.1l0.9,0.9l2.1-2.3l1.9,2l-3.3,3.3l1,0.8l3.2-3.3l1.7,1.8c0.3,0.3,0.3,0.9,0,1.2l-4.5,4.5
				C1227.9,72.1,1227.3,72.1,1227,71.8z"/>
		</g>
		<circle cx="1192.5" cy="85.5" r="9"/>
		<circle cx="1192.5" cy="112.5" r="9"/>
		<circle cx="1192.5" cy="139.5" r="9"/>
		<circle cx="1192.5" cy="166.5" r="9"/>
		<circle cx="1192.5" cy="193.5" r="9"/>
		<g>
			<path d="M1200,71.8c-6.9-6.9-13.9-13.8-20.8-20.8c-0.3-0.3-0.3-0.9,0-1.2l4.6-4.6c0.3-0.3,0.9-0.3,1.2,0l1.6,1.6l-3.4,3.3
				l0.9,0.8l3.2-3.3l2.1,2.1l-2.2,2l0.9,0.8l2.1-2.2l2,2l-3.4,3.3l0.9,0.8l3.2-3.3l2,2l-2.2,2l1.1,0.9l2-2.2l2,2l-3.4,3.3l0.9,0.8
				l3.3-3.4l2.1,2.1l-2.3,2.1l0.9,0.9l2.1-2.3l1.9,2l-3.3,3.3l1,0.8l3.2-3.3l1.7,1.8c0.3,0.3,0.3,0.9,0,1.2l-4.5,4.5
				C1200.9,72.1,1200.3,72.1,1200,71.8z"/>
		</g>
		<circle cx="1165.5" cy="85.5" r="9"/>
		<circle cx="1165.5" cy="112.5" r="9"/>
		<circle cx="1165.5" cy="139.5" r="9"/>
		<circle cx="1165.5" cy="166.5" r="9"/>
		<circle cx="1165.5" cy="193.5" r="9"/>
		<g>
			<path d="M1173,71.8c-6.9-6.9-13.9-13.8-20.8-20.8c-0.3-0.3-0.3-0.9,0-1.2l4.6-4.6c0.3-0.3,0.9-0.3,1.2,0l1.6,1.6l-3.4,3.3
				l0.9,0.8l3.2-3.3l2.1,2.1l-2.2,2l0.9,0.8l2.1-2.2l2,2l-3.4,3.3l0.9,0.8l3.2-3.3l2,2l-2.2,2l1.1,0.9l2-2.2l2,2l-3.4,3.3l0.9,0.8
				l3.3-3.4l2.1,2.1l-2.3,2.1l0.9,0.9l2.1-2.3l1.9,2l-3.3,3.3l1,0.8l3.2-3.3l1.7,1.8c0.3,0.3,0.3,0.9,0,1.2l-4.5,4.5
				C1173.9,72.1,1173.3,72.1,1173,71.8z"/>
		</g>
		<circle cx="1138.5" cy="85.5" r="9"/>
		<circle cx="1138.5" cy="112.5" r="9"/>
		<circle class="st19" cx="1138.5" cy="139.5" r="9"/>
		<circle cx="1138.5" cy="166.5" r="9"/>
		<circle cx="1138.5" cy="193.5" r="9"/>
		<g>
			<path d="M1146,71.8c-6.9-6.9-13.9-13.8-20.8-20.8c-0.3-0.3-0.3-0.9,0-1.2l4.6-4.6c0.3-0.3,0.9-0.3,1.2,0l1.6,1.6l-3.4,3.3
				l0.9,0.8l3.2-3.3l2.1,2.1l-2.2,2l0.9,0.8l2.1-2.2l2,2l-3.4,3.3l0.9,0.8l3.2-3.3l2,2l-2.2,2l1.1,0.9l2-2.2l2,2l-3.4,3.3l0.9,0.8
				l3.3-3.4l2.1,2.1l-2.3,2.1l0.9,0.9l2.1-2.3l1.9,2l-3.3,3.3l1,0.8l3.2-3.3l1.7,1.8c0.3,0.3,0.3,0.9,0,1.2l-4.5,4.5
				C1146.9,72.1,1146.3,72.1,1146,71.8z"/>
		</g>
		<g>
			<rect x="815.9" y="54.2" class="st0" width="2.2" height="8.7"/>
			<rect x="819.2" y="56.3" class="st1" width="2.2" height="6.5"/>
			<rect x="825.7" y="59.3" class="st2" width="2.2" height="3.5"/>
			<rect x="828.9" y="60.7" class="st3" width="2.2" height="2.2"/>
			<rect x="822.4" y="55.2" class="st4" width="2.2" height="7.6"/>
		</g>
		<rect x="848.2" y="76.5" class="st0" width="4.5" height="18"/>
		<rect x="847.5" y="103.5" class="st1" width="6" height="18"/>
		<rect x="847.9" y="130.5" class="st4" width="5.1" height="18"/>
		<rect x="837" y="153" class="st5" width="27" height="27"/>
		<text transform="matrix(1 0 0 1 873 171)" class="st6 st7">rect</text>
		<rect x="846" y="159.2" class="st2" width="9" height="14.6"/>
		<rect x="837" y="180" class="st5" width="27" height="27"/>
		<text transform="matrix(1 0 0 1 873 198)" class="st6 st7">rect</text>
		<rect x="841.5" y="184.5" class="st3" width="18" height="18"/>
		<g>
			<circle class="st19" cx="742.5" cy="57.9" r="9"/>
			<text transform="matrix(1 0 0 1 738.2993 62.4272)" class="st17 st18">0</text>
		</g>
		<rect x="756" y="18" class="st5" width="477" height="27"/>
		<rect x="783" y="18" class="st5" width="27" height="27"/>
		<rect x="729" y="18" class="st5" width="27" height="27"/>
		<text transform="matrix(1 0 0 1 819 36)" class="st6 st7">svg</text>
		<polygon points="769.5,36 774,27 765,27 		"/>
		<g>
			<rect x="788.9" y="27.2" class="st0" width="2.2" height="8.7"/>
			<rect x="792.2" y="29.3" class="st1" width="2.2" height="6.5"/>
			<rect x="798.7" y="32.3" class="st2" width="2.2" height="3.5"/>
			<rect x="801.9" y="33.7" class="st3" width="2.2" height="2.2"/>
			<rect x="795.4" y="28.2" class="st4" width="2.2" height="7.6"/>
		</g>
		<g>
			<circle class="st19" cx="742.5" cy="30.9" r="9"/>
			<text transform="matrix(1 0 0 1 738.2993 35.4272)" class="st17 st18">0</text>
		</g>
		<rect x="1233" y="72" class="st5" width="54" height="27"/>
		<rect x="1233" y="99" class="st5" width="54" height="27"/>
		<rect x="1233" y="126" class="st5" width="54" height="27"/>
		<rect x="1233" y="153" class="st5" width="54" height="27"/>
		<rect x="1233" y="180" class="st5" width="54" height="27"/>
		<rect x="1233" y="18" class="st5" width="54" height="27"/>
		<rect x="1233" y="45" class="st5" width="54" height="27"/>
		<g>
			<rect x="1269" y="972" class="st5" width="18" height="18"/>
			<polygon class="st5" points="1282.5,981 1273.5,976.5 1273.5,985.5 			"/>
		</g>
		<g>
			<rect x="1287" y="954" class="st5" width="18" height="18"/>
			<polygon class="st5" points="1296,967.5 1300.5,958.5 1291.5,958.5 			"/>
		</g>
		<g>
			<rect x="1287" y="18" class="st5" width="18" height="18"/>
			<polygon class="st5" points="1296,22.5 1291.5,31.5 1300.5,31.5 			"/>
		</g>
		<g>
			<rect x="729" y="972" class="st5" width="18" height="18"/>
			<polygon class="st5" points="733.5,981 742.5,985.5 742.5,976.5 			"/>
		</g>
		<g id="SvgLayerSelection">
			<rect x="729" y="18" class="st21" width="558" height="27"/>
			<circle class="st10" cx="1246.5" cy="85.5" r="4.5"/>
			<circle class="st10" cx="1246.5" cy="112.5" r="4.5"/>
			<circle class="st10" cx="1246.5" cy="139.5" r="4.5"/>
			<circle class="st10" cx="1246.5" cy="166.5" r="4.5"/>
			<circle class="st10" cx="1246.5" cy="193.5" r="4.5"/>
			<circle class="st10" cx="1246.5" cy="31.5" r="4.5"/>
			<circle class="st10" cx="1246.5" cy="31.5" r="9"/>
			<circle class="st10" cx="1246.5" cy="58.5" r="4.5"/>
			<rect x="1269" y="54" class="st10" width="9" height="9"/>
			<rect x="1269" y="27" class="st10" width="9" height="9"/>
			<rect x="1269" y="81" class="st10" width="9" height="9"/>
			<rect x="1269" y="108" class="st10" width="9" height="9"/>
			<rect x="1269" y="135" class="st10" width="9" height="9"/>
			<rect x="1269" y="162" class="st10" width="9" height="9"/>
			<rect x="1269" y="189" class="st10" width="9" height="9"/>
		</g>
		<g id="GroupLayerSelection" class="st11">
			<rect x="729" y="45" class="st22" width="558" height="27"/>
			<circle class="st16" cx="1246.5" cy="85.5" r="4.5"/>
			<circle class="st16" cx="1246.5" cy="112.5" r="4.5"/>
			<circle class="st16" cx="1246.5" cy="139.5" r="4.5"/>
			<circle class="st16" cx="1246.5" cy="166.5" r="4.5"/>
			<circle class="st16" cx="1246.5" cy="193.5" r="4.5"/>
			<circle class="st16" cx="1246.5" cy="31.5" r="4.5"/>
			<circle class="st16" cx="1246.5" cy="58.5" r="9"/>
			<circle class="st16" cx="1246.5" cy="58.5" r="4.5"/>
			<rect x="1271.2" y="29.2" class="st16" width="4.5" height="4.5"/>
			<rect x="1269" y="54" class="st16" width="9" height="9"/>
			<rect x="1269" y="81" class="st16" width="9" height="9"/>
			<rect x="1269" y="108" class="st16" width="9" height="9"/>
			<rect x="1269" y="135" class="st16" width="9" height="9"/>
			<rect x="1269" y="162" class="st16" width="9" height="9"/>
			<rect x="1269" y="189" class="st16" width="9" height="9"/>
		</g>
		<g id="Rect5LayerSelection" class="st11">
			<rect x="729" y="180" class="st22" width="558" height="27"/>
			<circle class="st16" cx="1246.5" cy="85.5" r="4.5"/>
			<circle class="st16" cx="1246.5" cy="112.5" r="4.5"/>
			<circle class="st16" cx="1246.5" cy="139.5" r="4.5"/>
			<circle class="st16" cx="1246.5" cy="166.5" r="4.5"/>
			<circle class="st16" cx="1246.5" cy="193.5" r="4.5"/>
			<circle class="st16" cx="1246.5" cy="31.5" r="4.5"/>
			<circle class="st16" cx="1246.5" cy="193.5" r="9"/>
			<circle class="st16" cx="1246.5" cy="58.5" r="4.5"/>
			<rect x="1271.2" y="29.2" class="st16" width="4.5" height="4.5"/>
			<rect x="1271.2" y="56.2" class="st16" width="4.5" height="4.5"/>
			<rect x="1269" y="189" class="st16" width="9" height="9"/>
		</g>
		<g id="Rect4LayerSelection" class="st11">
			<rect x="729" y="153" class="st22" width="558" height="27"/>
			<circle class="st16" cx="1246.5" cy="85.5" r="4.5"/>
			<circle class="st16" cx="1246.5" cy="112.5" r="4.5"/>
			<circle class="st16" cx="1246.5" cy="139.5" r="4.5"/>
			<circle class="st16" cx="1246.5" cy="166.5" r="4.5"/>
			<circle class="st16" cx="1246.5" cy="193.5" r="4.5"/>
			<circle class="st16" cx="1246.5" cy="31.5" r="4.5"/>
			<circle class="st16" cx="1246.5" cy="166.5" r="9"/>
			<circle class="st16" cx="1246.5" cy="58.5" r="4.5"/>
			<rect x="1271.2" y="29.2" class="st16" width="4.5" height="4.5"/>
			<rect x="1271.2" y="56.2" class="st16" width="4.5" height="4.5"/>
			<rect x="1269" y="162" class="st16" width="9" height="9"/>
		</g>
		<g id="Rect3LayerSelection" class="st11">
			<rect x="729" y="126" class="st22" width="558" height="27"/>
			<circle class="st16" cx="1246.5" cy="85.5" r="4.5"/>
			<circle class="st16" cx="1246.5" cy="112.5" r="4.5"/>
			<circle class="st16" cx="1246.5" cy="139.5" r="4.5"/>
			<circle class="st16" cx="1246.5" cy="166.5" r="4.5"/>
			<circle class="st16" cx="1246.5" cy="193.5" r="4.5"/>
			<circle class="st16" cx="1246.5" cy="31.5" r="4.5"/>
			<circle class="st16" cx="1246.5" cy="139.5" r="9"/>
			<circle class="st16" cx="1246.5" cy="58.5" r="4.5"/>
			<rect x="1271.2" y="29.2" class="st16" width="4.5" height="4.5"/>
			<rect x="1271.2" y="56.2" class="st16" width="4.5" height="4.5"/>
			<rect x="1269" y="135" class="st16" width="9" height="9"/>
		</g>
		<g id="Rect2LayerSelection" class="st11">
			<rect x="729" y="99" class="st22" width="558" height="27"/>
			<circle class="st16" cx="1246.5" cy="85.5" r="4.5"/>
			<circle class="st16" cx="1246.5" cy="112.5" r="4.5"/>
			<circle class="st16" cx="1246.5" cy="139.5" r="4.5"/>
			<circle class="st16" cx="1246.5" cy="166.5" r="4.5"/>
			<circle class="st16" cx="1246.5" cy="193.5" r="4.5"/>
			<circle class="st16" cx="1246.5" cy="31.5" r="4.5"/>
			<circle class="st16" cx="1246.5" cy="112.5" r="9"/>
			<circle class="st16" cx="1246.5" cy="58.5" r="4.5"/>
			<rect x="1271.2" y="29.2" class="st16" width="4.5" height="4.5"/>
			<rect x="1271.2" y="56.2" class="st16" width="4.5" height="4.5"/>
			<rect x="1269" y="108" class="st16" width="9" height="9"/>
		</g>
		<g id="Rect1LayerSelection" class="st11">
			<rect x="729" y="72" class="st22" width="558" height="27"/>
			<circle class="st16" cx="1246.5" cy="85.5" r="4.5"/>
			<circle class="st16" cx="1246.5" cy="112.5" r="4.5"/>
			<circle class="st16" cx="1246.5" cy="139.5" r="4.5"/>
			<circle class="st16" cx="1246.5" cy="166.5" r="4.5"/>
			<circle class="st16" cx="1246.5" cy="193.5" r="4.5"/>
			<circle class="st16" cx="1246.5" cy="31.5" r="4.5"/>
			<circle class="st16" cx="1246.5" cy="85.5" r="9"/>
			<circle class="st16" cx="1246.5" cy="58.5" r="4.5"/>
			<rect x="1271.2" y="29.2" class="st16" width="4.5" height="4.5"/>
			<rect x="1271.2" y="56.2" class="st16" width="4.5" height="4.5"/>
			<rect x="1269" y="81" class="st16" width="9" height="9"/>
		</g>
	</g>
</g>
<g id="RulesWidget">
	<rect x="1305" y="18" class="st5" width="576" height="972"/>
	<g>
		<path d="M1889,1018v52h-52v-52H1889 M1890,1017h-54v54h54V1017L1890,1017z"/>
	</g>
	<rect x="1828" y="1007.6" onclick="toggleRules(false)" class="st9" width="72" height="72.4"/>
	<g id="Rect3Rules" class="st11">
		<text transform="matrix(1 0 0 1 1359 81.0001)" class="st23"><tspan x="0" y="0" class="st15 st7">y = 400 - 100 * mass</tspan><tspan x="0" y="36" class="st15 st7">height = 100 * mass</tspan><tspan x="0" y="72" class="st15 st7">x = 150 * row</tspan><tspan x="0" y="108" class="st15 st7">fill = red</tspan><tspan x="0" y="144" class="st15 st7">stroke-width = 0</tspan><tspan x="0" y="180" class="st15 st7">stroke = none</tspan></text>
		<text transform="matrix(1 0 0 1 1350 54.0001)" class="st14 st6 st7">SVG Attributes</text>
		<circle class="st14" cx="1332" cy="72" r="9"/>
		<circle class="st14" cx="1332" cy="108" r="9"/>
		<circle class="st14" cx="1332" cy="144" r="9"/>
		<circle class="st24" cx="1332" cy="180" r="9"/>
	</g>
	<g id="GroupRules">
		<text transform="matrix(1 0 0 1 1359 152.9952)" class="st25"><tspan x="0" y="0" class="st15 st7">y = 400 - 100 * mass</tspan><tspan x="0" y="36" class="st15 st7">height = 100 * mass</tspan><tspan x="0" y="72" class="st15 st7">x = 150 * row</tspan><tspan x="0" y="108" class="st15 st7">fill = cb-greys(vol)</tspan></text>
		<text transform="matrix(1 0 0 1 1359 81)" class="st15 st7">transform = translate(950,700)</text>
		<g>
			<path d="M1335,134.8c-6.9-6.9-13.9-13.8-20.8-20.8c-0.3-0.3-0.3-0.9,0-1.2l4.6-4.6c0.3-0.3,0.9-0.3,1.2,0l1.6,1.6l-3.4,3.3
				l0.9,0.8l3.2-3.3l2.1,2.1l-2.2,2l0.9,0.8l2.1-2.2l2,2l-3.4,3.3l0.9,0.8l3.2-3.3l2,2l-2.2,2l1.1,0.9l2-2.2l2,2l-3.4,3.3l0.9,0.8
				l3.3-3.4l2.1,2.1l-2.3,2.1l0.9,0.9l2.1-2.3l1.9,2l-3.3,3.3l1,0.8l3.2-3.3l1.7,1.8c0.3,0.3,0.3,0.9,0,1.2l-4.5,4.5
				C1335.9,135.1,1335.3,135.1,1335,134.8z"/>
		</g>
		<g>
			<path class="st10" d="M1335,314.8c-6.9-6.9-13.9-13.8-20.8-20.8c-0.3-0.3-0.3-0.9,0-1.2l4.6-4.6c0.3-0.3,0.9-0.3,1.2,0l1.6,1.6
				l-3.4,3.3l0.9,0.8l3.2-3.3l2.1,2.1l-2.2,2l0.9,0.8l2.1-2.2l2,2l-3.4,3.3l0.9,0.8l3.2-3.3l2,2l-2.2,2l1.1,0.9l2-2.2l2,2l-3.4,3.3
				l0.9,0.8l3.3-3.4l2.1,2.1l-2.3,2.1l0.9,0.9l2.1-2.3l1.9,2l-3.3,3.3l1,0.8l3.2-3.3l1.7,1.8c0.3,0.3,0.3,0.9,0,1.2l-4.5,4.5
				C1335.9,315.1,1335.3,315.1,1335,314.8z"/>
		</g>
		<text transform="matrix(1 0 0 1 1350 126.0001)" class="st6 st7">Child Rules</text>
		<text transform="matrix(1 0 0 1 1350 306.0001)" class="st6 st7">Rule Suggestions</text>
		<text transform="matrix(1 0 0 1 1350 54.0001)" class="st6 st7">SVG Attributes</text>
	</g>
</g>
<g id="DirectConnections" class="st11">
	<line class="st16" x1="549" y1="126" x2="720" y2="648"/>
	<line class="st16" x1="549" y1="162" x2="828" y2="684"/>
	<line class="st16" x1="549" y1="198" x2="936" y2="666"/>
	<line class="st16" x1="549" y1="234" x2="1044" y2="729"/>
	<line class="st16" x1="549" y1="270" x2="1152" y2="756"/>
	<g class="st14">
		<circle cx="549" cy="126" r="9"/>
		<text transform="matrix(1 0 0 1 544.7993 130.5005)" class="st8 st17 st18">1</text>
	</g>
	<g class="st14">
		<circle cx="720" cy="648" r="9"/>
		<text transform="matrix(1 0 0 1 715.7993 652.5005)" class="st8 st17 st18">1</text>
	</g>
	<g class="st14">
		<circle cx="828" cy="684" r="9"/>
		<text transform="matrix(1 0 0 1 823.7993 688.5005)" class="st8 st17 st18">1</text>
	</g>
	<g class="st14">
		<circle cx="936" cy="666" r="9"/>
		<text transform="matrix(1 0 0 1 931.7993 670.5005)" class="st8 st17 st18">1</text>
	</g>
	<g class="st14">
		<circle cx="1044" cy="729.6" r="9"/>
		<text transform="matrix(1 0 0 1 1039.7993 734.0737)" class="st8 st17 st18">1</text>
	</g>
	<g class="st14">
		<circle cx="1152" cy="756" r="9"/>
		<text transform="matrix(1 0 0 1 1147.7993 760.5005)" class="st8 st17 st18">1</text>
	</g>
	<g class="st14">
		<circle cx="549" cy="162" r="9"/>
		<text transform="matrix(1 0 0 1 544.7993 166.5005)" class="st8 st17 st18">1</text>
	</g>
	<g class="st14">
		<circle cx="549" cy="198" r="9"/>
		<text transform="matrix(1 0 0 1 544.7993 202.5005)" class="st8 st17 st18">1</text>
	</g>
	<g class="st14">
		<circle cx="549" cy="234" r="9"/>
		<text transform="matrix(1 0 0 1 544.7993 238.5005)" class="st8 st17 st18">1</text>
	</g>
	<g class="st14">
		<circle cx="549" cy="270" r="9"/>
		<text transform="matrix(1 0 0 1 544.7993 274.5005)" class="st8 st17 st18">1</text>
	</g>
</g>
<g id="LayerConnections" class="st11">
	<line class="st16" x1="549" y1="126" x2="742.5" y2="85.5"/>
	<g class="st14">
		<circle cx="549" cy="126" r="9"/>
		<text transform="matrix(1 0 0 1 544.7993 130.5005)" class="st8 st17 st18">1</text>
	</g>
	<g class="st14">
		<circle cx="742.5" cy="84.9" r="9"/>
		<text transform="matrix(1 0 0 1 738.2993 89.427)" class="st8 st17 st18">1</text>
	</g>
	<line class="st16" x1="549" y1="162" x2="742.5" y2="113.1"/>
	<g class="st14">
		<circle cx="549" cy="162" r="9"/>
		<text transform="matrix(1 0 0 1 544.7993 166.5005)" class="st8 st17 st18">1</text>
	</g>
	<g class="st14">
		<circle cx="742.5" cy="112.5" r="9"/>
		<text transform="matrix(1 0 0 1 738.2993 117.0005)" class="st8 st17 st18">1</text>
	</g>
	<line class="st16" x1="549" y1="198" x2="742.5" y2="140.1"/>
	<g class="st14">
		<circle cx="549" cy="198" r="9"/>
		<text transform="matrix(1 0 0 1 544.7993 202.5005)" class="st8 st17 st18">1</text>
	</g>
	<g class="st14">
		<circle cx="742.5" cy="139.5" r="9"/>
		<text transform="matrix(1 0 0 1 738.2993 144.0005)" class="st8 st17 st18">1</text>
	</g>
	<line class="st16" x1="549" y1="234" x2="742.5" y2="167.1"/>
	<g class="st14">
		<circle cx="549" cy="234" r="9"/>
		<text transform="matrix(1 0 0 1 544.7993 238.5005)" class="st8 st17 st18">1</text>
	</g>
	<g class="st14">
		<circle cx="742.5" cy="166.5" r="9"/>
		<text transform="matrix(1 0 0 1 738.2993 171.0005)" class="st8 st17 st18">1</text>
	</g>
	<line class="st16" x1="549" y1="270" x2="742.5" y2="194.1"/>
	<g class="st14">
		<circle cx="549" cy="270" r="9"/>
		<text transform="matrix(1 0 0 1 544.7993 274.5005)" class="st8 st17 st18">1</text>
	</g>
	<g class="st14">
		<circle cx="742.5" cy="193.5" r="9"/>
		<text transform="matrix(1 0 0 1 738.2993 198.0005)" class="st8 st17 st18">1</text>
	</g>
</g>
<g id="OffsetLayerConnections" class="st11">
	<line class="st16" x1="549" y1="126" x2="1318.5" y2="85.5"/>
	<g class="st14">
		<circle cx="549" cy="126" r="9"/>
		<text transform="matrix(1 0 0 1 544.7993 130.5005)" class="st8 st17 st18">1</text>
	</g>
	<g class="st14">
		<circle cx="1318.5" cy="84.9" r="9"/>
		<text transform="matrix(1 0 0 1 1314.2993 89.427)" class="st8 st17 st18">1</text>
	</g>
	<line class="st16" x1="549" y1="162" x2="1318.5" y2="113.1"/>
	<g class="st14">
		<circle cx="549" cy="162" r="9"/>
		<text transform="matrix(1 0 0 1 544.7993 166.5005)" class="st8 st17 st18">1</text>
	</g>
	<g class="st14">
		<circle cx="1318.5" cy="112.5" r="9"/>
		<text transform="matrix(1 0 0 1 1314.2993 117.0005)" class="st8 st17 st18">1</text>
	</g>
	<line class="st16" x1="549" y1="198" x2="1318.5" y2="140.1"/>
	<g class="st14">
		<circle cx="549" cy="198" r="9"/>
		<text transform="matrix(1 0 0 1 544.7993 202.5005)" class="st8 st17 st18">1</text>
	</g>
	<g class="st14">
		<circle cx="1318.5" cy="139.5" r="9"/>
		<text transform="matrix(1 0 0 1 1314.2993 144.0005)" class="st8 st17 st18">1</text>
	</g>
	<line class="st16" x1="549" y1="234" x2="1318.5" y2="167.1"/>
	<g class="st14">
		<circle cx="549" cy="234" r="9"/>
		<text transform="matrix(1 0 0 1 544.7993 238.5005)" class="st8 st17 st18">1</text>
	</g>
	<g class="st14">
		<circle cx="1318.5" cy="166.5" r="9"/>
		<text transform="matrix(1 0 0 1 1314.2993 171.0005)" class="st8 st17 st18">1</text>
	</g>
	<line class="st16" x1="549" y1="270" x2="1318.5" y2="194.1"/>
	<g class="st14">
		<circle cx="549" cy="270" r="9"/>
		<text transform="matrix(1 0 0 1 544.7993 274.5005)" class="st8 st17 st18">1</text>
	</g>
	<g class="st14">
		<circle cx="1318.5" cy="193.5" r="9"/>
		<text transform="matrix(1 0 0 1 1314.2993 198.0005)" class="st8 st17 st18">1</text>
	</g>
</g>
</svg>
